<svg xmlns="http://www.w3.org/2000/svg" width="91.057" height="81.016" viewBox="0 0 91.057 81.016">
  <path id="iconfinder_react_4691292" d="M45.529,33.715a8.115,8.115,0,1,0,8.115,8.115A8.115,8.115,0,0,0,45.529,33.715ZM22.795,57.974,21,57.518c-13.347-3.373-21-9.1-21-15.7s7.656-12.331,21-15.7l1.791-.451.5,1.776A89.273,89.273,0,0,0,28.47,41.01l.383.808-.383.808A88.427,88.427,0,0,0,23.3,56.2l-.5,1.772ZM20.173,30.258C10.028,33.107,3.8,37.467,3.8,41.815s6.226,8.7,16.371,11.557a94.662,94.662,0,0,1,4.485-11.557,93.91,93.91,0,0,1-4.485-11.557ZM68.262,57.974l-.5-1.779a88.619,88.619,0,0,0-5.175-13.571l-.383-.808.383-.808a88.858,88.858,0,0,0,5.175-13.575l.5-1.776,1.795.451c13.344,3.373,21,9.1,21,15.707s-7.656,12.331-21,15.7ZM66.4,41.815a93.811,93.811,0,0,1,4.485,11.557c10.149-2.853,16.371-7.212,16.371-11.557s-6.226-8.7-16.371-11.557A94.048,94.048,0,0,1,66.4,41.815ZM20.146,30.239l-.5-1.772c-3.752-13.226-2.614-22.7,3.122-26.012,5.627-3.248,14.66.588,24.126,10.3l1.29,1.324-1.29,1.324A89.358,89.358,0,0,0,37.7,26.665l-.512.732-.892.076a89.754,89.754,0,0,0-14.36,2.314l-1.791.451ZM27.34,5.085a5.294,5.294,0,0,0-2.675.656c-3.771,2.174-4.439,9.732-1.84,19.93a95.312,95.312,0,0,1,12.266-1.9,94.271,94.271,0,0,1,7.785-9.652C36.958,8.355,31.354,5.085,27.34,5.085ZM63.721,82.339h0c-5.407,0-12.35-4.071-19.554-11.469l-1.29-1.324,1.29-1.324a89.274,89.274,0,0,0,9.185-11.261l.512-.732.888-.076A89.652,89.652,0,0,0,69.12,53.842l1.791-.451.508,1.776c3.745,13.218,2.61,22.7-3.126,26a9.03,9.03,0,0,1-4.572,1.169ZM48.181,69.511C54.1,75.274,59.7,78.545,63.717,78.545h0a5.279,5.279,0,0,0,2.671-.656c3.771-2.174,4.443-9.736,1.84-19.934a94.924,94.924,0,0,1-12.27,1.9A93.615,93.615,0,0,1,48.181,69.511Zm22.73-39.272-1.791-.451a89.079,89.079,0,0,0-14.368-2.314l-.888-.076-.512-.732a88.835,88.835,0,0,0-9.185-11.257l-1.29-1.324,1.29-1.324C53.629,3.047,62.659-.788,68.293,2.455c5.737,3.308,6.875,12.786,3.126,26.008l-.508,1.776ZM55.962,23.77a94.617,94.617,0,0,1,12.27,1.9c2.6-10.2,1.931-17.756-1.84-19.93C62.643,3.575,55.6,6.894,48.181,14.118a94.281,94.281,0,0,1,7.782,9.652ZM27.34,82.339a9.03,9.03,0,0,1-4.576-1.169c-5.737-3.3-6.875-12.782-3.122-26l.5-1.776,1.791.451a89.552,89.552,0,0,0,14.36,2.311l.892.076.508.732a89.524,89.524,0,0,0,9.189,11.261l1.29,1.324-1.29,1.324C39.682,78.268,32.739,82.339,27.34,82.339ZM22.825,57.955c-2.6,10.2-1.931,17.76,1.84,19.934,3.745,2.136,10.786-1.157,18.211-8.377a94.845,94.845,0,0,1-7.785-9.656,94.759,94.759,0,0,1-12.266-1.9Zm22.7,2.383c-3.122,0-6.332-.137-9.546-.4l-.892-.076-.512-.732q-2.727-3.918-5.122-8.051t-4.424-8.453l-.379-.808.379-.808q2.036-4.317,4.424-8.453c1.571-2.717,3.3-5.425,5.122-8.051l.512-.732.892-.076a113.006,113.006,0,0,1,19.1,0l.888.076.508.732a113.844,113.844,0,0,1,9.55,16.5l.383.808-.383.808a112.3,112.3,0,0,1-9.55,16.5l-.508.732-.888.076c-3.214.266-6.427.4-9.55.4Zm-8.336-4.113a110.2,110.2,0,0,0,16.675,0A110.049,110.049,0,0,0,62.2,41.815a108.452,108.452,0,0,0-8.336-14.41,110.145,110.145,0,0,0-16.671,0,108.043,108.043,0,0,0-8.336,14.41,110.459,110.459,0,0,0,8.336,14.41Z" transform="translate(0 -1.324)" fill="#353535" opacity="0.9"/>
</svg>
