<svg xmlns="http://www.w3.org/2000/svg" viewBox="0 0 578.55 124.08" height="32"><defs><style>.cls-1{fill:#fff;}</style></defs><path class="cls-1" d="M357.26,83.18H297.07a24.09,24.09,0,0,0,7.41,14.2,22.29,22.29,0,0,0,15.12,5.24A30.11,30.11,0,0,0,332.26,100a25.93,25.93,0,0,0,10-7.72l12.65,14.66a38.75,38.75,0,0,1-14.66,12.2,50.11,50.11,0,0,1-22.68,4.93,50.92,50.92,0,0,1-25.47-6.17,42.28,42.28,0,0,1-16.51-16.82,47,47,0,0,1-5.71-23.3v-3.4a58.25,58.25,0,0,1,5.4-25.46A40.68,40.68,0,0,1,290.9,31.48a45.23,45.23,0,0,1,23.92-6.33,44.72,44.72,0,0,1,23,5.71,37.76,37.76,0,0,1,14.51,16.21,59.71,59.71,0,0,1,4.94,24.84ZM331.18,63.27a17.67,17.67,0,0,0-4.33-12.19c-2.77-2.93-6.79-4.47-12.19-4.47a15.48,15.48,0,0,0-11.88,4.93,26.9,26.9,0,0,0-5.56,13.89h34Z"/><path class="cls-1" d="M195.68,100.31h55.71V123H163.58V106.64l55.25-83.8H163V0h87.35V16.05Z"/><path class="cls-1" d="M381.64,73.77c0-29.48,19.6-45.07,43.52-45.07s43,15.59,43,45.07v48.3H443.52V74.85C443.52,58.49,436.11,50,425,50s-19.13,8.49-19.13,24.85v47.37H381.48l.16-48.45Z"/><path class="cls-1" d="M492,73.77c0-29.48,19.6-45.07,43.52-45.07s43,15.59,43,45.07v48.3H553.86V74.85c0-16.36-7.41-24.85-18.52-24.85s-19.13,8.49-19.13,24.85v47.37H491.82L492,73.77Z"/><path class="cls-1" d="M1.39,124.07H27.62a4.24,4.24,0,0,0,3.4-1.85L103.24,3.55a2.23,2.23,0,0,0-2-3.4H76.39a3.32,3.32,0,0,0-2.93,1.7L.16,121.91A1.48,1.48,0,0,0,1.39,124.07Z"/><path class="cls-1" d="M91.82,122.22l34.11-54.78a2.51,2.51,0,0,0-2.16-3.86H99.08a2.71,2.71,0,0,0-2.32,1.24l-35,56a2.12,2.12,0,0,0,1.85,3.24H88.74A3.37,3.37,0,0,0,91.82,122.22Z"/></svg>